<svg width="243" height="28" viewBox="0 0 243 28" fill="none" xmlns="http://www.w3.org/2000/svg">
<g filter="url(#filter0_d_1_2)">
<path d="M17.9883 17.125C18.9805 17.125 19.8203 17.0977 20.5078 17.043C21.1953 16.9883 21.7617 16.8789 22.207 16.7148C22.6523 16.543 22.9961 16.2969 23.2383 15.9766C23.4805 15.6562 23.6562 15.2344 23.7656 14.7109C23.8828 14.1797 23.9492 13.5312 23.9648 12.7656C23.9883 11.9922 24 11.0703 24 10C24 8.92969 23.9883 8.01172 23.9648 7.24609C23.9492 6.47266 23.8828 5.82422 23.7656 5.30078C23.6562 4.76953 23.4805 4.34375 23.2383 4.02344C22.9961 3.70312 22.6523 3.46094 22.207 3.29688C21.7617 3.125 21.1953 3.01172 20.5078 2.95703C19.8281 2.90234 18.9883 2.875 17.9883 2.875H6.75V17.125H17.9883ZM4.5 19V1H17.9883C19.3633 1 20.5195 1.08203 21.457 1.24609C22.4023 1.40234 23.1797 1.64453 23.7891 1.97266C24.4062 2.30078 24.8789 2.71094 25.207 3.20312C25.543 3.69531 25.7852 4.27734 25.9336 4.94922C26.0898 5.61328 26.1797 6.36719 26.2031 7.21094C26.2344 8.04688 26.25 8.97656 26.25 10C26.25 11.0234 26.2344 11.957 26.2031 12.8008C26.1797 13.6367 26.0898 14.3906 25.9336 15.0625C25.7852 15.7266 25.543 16.3047 25.207 16.7969C24.8789 17.2891 24.4062 17.6992 23.7891 18.0273C23.1797 18.3555 22.4023 18.6016 21.457 18.7656C20.5195 18.9219 19.3633 19 17.9883 19H4.5ZM30 19V1H48V2.875H32.25V8.875H47.25V10.75H32.25V17.125H48V19H30ZM69.375 1H72L62.25 19H59.25L49.5 1H52.125L60.75 17.5L69.375 1ZM99 1H101.25V19H99V10.75H82.5V19H80.25V1H82.5V8.875H99V1ZM120.012 0.625C121.387 0.625 122.543 0.710938 123.48 0.882812C124.426 1.04688 125.203 1.30078 125.812 1.64453C126.422 1.98047 126.891 2.40625 127.219 2.92188C127.547 3.4375 127.785 4.04297 127.934 4.73828C128.09 5.43359 128.18 6.21875 128.203 7.09375C128.234 7.96875 128.25 8.9375 128.25 10C128.25 11.0625 128.234 12.0312 128.203 12.9062C128.18 13.7812 128.09 14.5664 127.934 15.2617C127.785 15.957 127.547 16.5625 127.219 17.0781C126.891 17.5938 126.422 18.0234 125.812 18.3672C125.203 18.7031 124.426 18.9531 123.48 19.1172C122.543 19.2891 121.387 19.375 120.012 19.375H113.238C111.863 19.375 110.703 19.2891 109.758 19.1172C108.82 18.9531 108.047 18.7031 107.438 18.3672C106.828 18.0234 106.355 17.5938 106.02 17.0781C105.691 16.5625 105.449 15.957 105.293 15.2617C105.145 14.5664 105.059 13.7812 105.035 12.9062C105.012 12.0312 105 11.0625 105 10C105 8.9375 105.012 7.96875 105.035 7.09375C105.059 6.21875 105.145 5.43359 105.293 4.73828C105.449 4.04297 105.691 3.4375 106.02 2.92188C106.355 2.40625 106.828 1.98047 107.438 1.64453C108.047 1.30078 108.82 1.04688 109.758 0.882812C110.703 0.710938 111.863 0.625 113.238 0.625H120.012ZM120.012 17.5C121.004 17.5 121.84 17.4727 122.52 17.418C123.207 17.3555 123.773 17.2344 124.219 17.0547C124.664 16.875 125.008 16.6172 125.25 16.2812C125.492 15.9453 125.668 15.5 125.777 14.9453C125.887 14.3906 125.949 13.7109 125.965 12.9062C125.988 12.0938 126 11.125 126 10C126 8.875 125.988 7.91016 125.965 7.10547C125.949 6.29297 125.887 5.60938 125.777 5.05469C125.668 4.5 125.492 4.05469 125.25 3.71875C125.008 3.38281 124.664 3.125 124.219 2.94531C123.781 2.76562 123.219 2.64844 122.531 2.59375C121.852 2.53125 121.012 2.5 120.012 2.5H113.238C112.238 2.5 111.395 2.53125 110.707 2.59375C110.027 2.64844 109.465 2.76562 109.02 2.94531C108.574 3.125 108.23 3.38281 107.988 3.71875C107.746 4.05469 107.57 4.5 107.461 5.05469C107.352 5.60938 107.289 6.29297 107.273 7.10547C107.258 7.91016 107.25 8.875 107.25 10C107.25 11.125 107.258 12.0938 107.273 12.9062C107.297 13.7109 107.363 14.3906 107.473 14.9453C107.582 15.5 107.754 15.9453 107.988 16.2812C108.23 16.6172 108.574 16.875 109.02 17.0547C109.465 17.2344 110.027 17.3555 110.707 17.418C111.395 17.4727 112.238 17.5 113.238 17.5H120.012ZM143.344 8.875C144.578 8.875 145.637 8.92578 146.52 9.02734C147.402 9.12891 148.145 9.28125 148.746 9.48438C149.355 9.67969 149.84 9.92578 150.199 10.2227C150.559 10.5195 150.836 10.8594 151.031 11.2422C151.227 11.6172 151.352 12.0391 151.406 12.5078C151.469 12.9766 151.5 13.4844 151.5 14.0312C151.5 14.5781 151.449 15.0938 151.348 15.5781C151.254 16.0547 151.082 16.4922 150.832 16.8906C150.582 17.2891 150.242 17.6445 149.812 17.957C149.383 18.2695 148.836 18.5352 148.172 18.7539C147.508 18.9727 146.707 19.1367 145.77 19.2461C144.84 19.3633 143.75 19.4219 142.5 19.4219H139.5C138.375 19.4219 137.391 19.3789 136.547 19.293C135.703 19.207 134.977 19.0781 134.367 18.9062C133.758 18.7266 133.254 18.5039 132.855 18.2383C132.457 17.9648 132.137 17.6484 131.895 17.2891C131.66 16.9219 131.496 16.5078 131.402 16.0469C131.309 15.5781 131.262 15.0625 131.262 14.5H133.512C133.512 15.2031 133.613 15.7539 133.816 16.1523C134.02 16.5508 134.355 16.8516 134.824 17.0547C135.293 17.25 135.906 17.375 136.664 17.4297C137.43 17.4766 138.375 17.5 139.5 17.5H142.5C143.812 17.5 144.902 17.4375 145.77 17.3125C146.637 17.1875 147.328 16.9883 147.844 16.7148C148.359 16.4414 148.723 16.0859 148.934 15.6484C149.145 15.2031 149.25 14.6641 149.25 14.0312C149.25 13.3984 149.176 12.8711 149.027 12.4492C148.887 12.0273 148.602 11.6914 148.172 11.4414C147.75 11.1914 147.152 11.0156 146.379 10.9141C145.605 10.8047 144.594 10.75 143.344 10.75H140.25C138.875 10.75 137.695 10.6992 136.711 10.5977C135.734 10.4961 134.914 10.3516 134.25 10.1641C133.586 9.96875 133.055 9.73047 132.656 9.44922C132.258 9.16016 131.953 8.83203 131.742 8.46484C131.539 8.09766 131.406 7.69141 131.344 7.24609C131.281 6.79297 131.25 6.30469 131.25 5.78125C131.25 5.23438 131.297 4.72656 131.391 4.25781C131.492 3.78906 131.676 3.36719 131.941 2.99219C132.207 2.60938 132.57 2.26953 133.031 1.97266C133.492 1.67578 134.082 1.42969 134.801 1.23438C135.527 1.03125 136.398 0.878906 137.414 0.777344C138.43 0.675781 139.625 0.625 141 0.625H143.25C144.375 0.625 145.359 0.667969 146.203 0.753906C147.047 0.832031 147.773 0.960938 148.383 1.14062C148.992 1.3125 149.496 1.53125 149.895 1.79688C150.301 2.05469 150.621 2.36719 150.855 2.73438C151.098 3.09375 151.266 3.50391 151.359 3.96484C151.453 4.42578 151.5 4.9375 151.5 5.5H149.25C149.25 4.79688 149.148 4.24609 148.945 3.84766C148.742 3.44922 148.406 3.15234 147.938 2.95703C147.469 2.75391 146.852 2.62891 146.086 2.58203C145.32 2.52734 144.375 2.5 143.25 2.5H141C139.5 2.5 138.266 2.55469 137.297 2.66406C136.328 2.76562 135.562 2.94141 135 3.19141C134.438 3.44141 134.047 3.77734 133.828 4.19922C133.609 4.62109 133.5 5.14844 133.5 5.78125C133.5 6.17188 133.527 6.51953 133.582 6.82422C133.637 7.12891 133.746 7.39844 133.91 7.63281C134.082 7.85938 134.32 8.05078 134.625 8.20703C134.93 8.36328 135.332 8.49219 135.832 8.59375C136.332 8.69531 136.941 8.76953 137.66 8.81641C138.387 8.85547 139.25 8.875 140.25 8.875H143.344ZM174.75 1V2.875H165.75V19H163.5V2.875H154.5V1H174.75ZM178.5 19V1H196.5V2.875H180.75V8.875H195.75V10.75H180.75V17.125H196.5V19H178.5ZM199.5 19V1H201.75V17.125H216V19H199.5ZM230.344 8.875C231.578 8.875 232.637 8.92578 233.52 9.02734C234.402 9.12891 235.145 9.28125 235.746 9.48438C236.355 9.67969 236.84 9.92578 237.199 10.2227C237.559 10.5195 237.836 10.8594 238.031 11.2422C238.227 11.6172 238.352 12.0391 238.406 12.5078C238.469 12.9766 238.5 13.4844 238.5 14.0312C238.5 14.5781 238.449 15.0938 238.348 15.5781C238.254 16.0547 238.082 16.4922 237.832 16.8906C237.582 17.2891 237.242 17.6445 236.812 17.957C236.383 18.2695 235.836 18.5352 235.172 18.7539C234.508 18.9727 233.707 19.1367 232.77 19.2461C231.84 19.3633 230.75 19.4219 229.5 19.4219H226.5C225.375 19.4219 224.391 19.3789 223.547 19.293C222.703 19.207 221.977 19.0781 221.367 18.9062C220.758 18.7266 220.254 18.5039 219.855 18.2383C219.457 17.9648 219.137 17.6484 218.895 17.2891C218.66 16.9219 218.496 16.5078 218.402 16.0469C218.309 15.5781 218.262 15.0625 218.262 14.5H220.512C220.512 15.2031 220.613 15.7539 220.816 16.1523C221.02 16.5508 221.355 16.8516 221.824 17.0547C222.293 17.25 222.906 17.375 223.664 17.4297C224.43 17.4766 225.375 17.5 226.5 17.5H229.5C230.812 17.5 231.902 17.4375 232.77 17.3125C233.637 17.1875 234.328 16.9883 234.844 16.7148C235.359 16.4414 235.723 16.0859 235.934 15.6484C236.145 15.2031 236.25 14.6641 236.25 14.0312C236.25 13.3984 236.176 12.8711 236.027 12.4492C235.887 12.0273 235.602 11.6914 235.172 11.4414C234.75 11.1914 234.152 11.0156 233.379 10.9141C232.605 10.8047 231.594 10.75 230.344 10.75H227.25C225.875 10.75 224.695 10.6992 223.711 10.5977C222.734 10.4961 221.914 10.3516 221.25 10.1641C220.586 9.96875 220.055 9.73047 219.656 9.44922C219.258 9.16016 218.953 8.83203 218.742 8.46484C218.539 8.09766 218.406 7.69141 218.344 7.24609C218.281 6.79297 218.25 6.30469 218.25 5.78125C218.25 5.23438 218.297 4.72656 218.391 4.25781C218.492 3.78906 218.676 3.36719 218.941 2.99219C219.207 2.60938 219.57 2.26953 220.031 1.97266C220.492 1.67578 221.082 1.42969 221.801 1.23438C222.527 1.03125 223.398 0.878906 224.414 0.777344C225.43 0.675781 226.625 0.625 228 0.625H230.25C231.375 0.625 232.359 0.667969 233.203 0.753906C234.047 0.832031 234.773 0.960938 235.383 1.14062C235.992 1.3125 236.496 1.53125 236.895 1.79688C237.301 2.05469 237.621 2.36719 237.855 2.73438C238.098 3.09375 238.266 3.50391 238.359 3.96484C238.453 4.42578 238.5 4.9375 238.5 5.5H236.25C236.25 4.79688 236.148 4.24609 235.945 3.84766C235.742 3.44922 235.406 3.15234 234.938 2.95703C234.469 2.75391 233.852 2.62891 233.086 2.58203C232.32 2.52734 231.375 2.5 230.25 2.5H228C226.5 2.5 225.266 2.55469 224.297 2.66406C223.328 2.76562 222.562 2.94141 222 3.19141C221.438 3.44141 221.047 3.77734 220.828 4.19922C220.609 4.62109 220.5 5.14844 220.5 5.78125C220.5 6.17188 220.527 6.51953 220.582 6.82422C220.637 7.12891 220.746 7.39844 220.91 7.63281C221.082 7.85938 221.32 8.05078 221.625 8.20703C221.93 8.36328 222.332 8.49219 222.832 8.59375C223.332 8.69531 223.941 8.76953 224.66 8.81641C225.387 8.85547 226.25 8.875 227.25 8.875H230.344Z" fill="black"/>
<path d="M22.207 16.7148L22.5527 17.6532L22.5599 17.6505L22.5671 17.6478L22.207 16.7148ZM23.7656 14.7109L22.789 14.4955L22.7868 14.5064L23.7656 14.7109ZM23.9648 12.7656L22.9653 12.7353L22.9651 12.7452L23.9648 12.7656ZM23.9648 7.24609L22.965 7.26629L22.9653 7.27669L23.9648 7.24609ZM23.7656 5.30078L22.7862 5.50243L22.7879 5.51086L22.7898 5.51925L23.7656 5.30078ZM22.207 3.29688L21.847 4.2298L21.8541 4.23256L21.8613 4.23522L22.207 3.29688ZM20.5078 2.95703L20.4276 3.95381L20.4285 3.95388L20.5078 2.95703ZM6.75 2.875V1.875H5.75V2.875H6.75ZM6.75 17.125H5.75V18.125H6.75V17.125ZM4.5 19H3.5V20H4.5V19ZM4.5 1V0H3.5V1H4.5ZM21.457 1.24609L21.2846 2.23117L21.294 2.23271L21.457 1.24609ZM23.7891 1.97266L23.315 2.85314L23.3196 2.85563L23.7891 1.97266ZM25.207 3.20312L24.3749 3.75786L24.3811 3.76687L25.207 3.20312ZM25.9336 4.94922L24.957 5.16497L24.9602 5.17826L25.9336 4.94922ZM26.2031 7.21094L25.2035 7.23871L25.2038 7.24829L26.2031 7.21094ZM26.2031 12.8008L25.2038 12.7638L25.2035 12.7728L26.2031 12.8008ZM25.9336 15.0625L24.9595 14.836L24.9577 14.8444L25.9336 15.0625ZM25.207 16.7969L24.381 16.2331L24.375 16.2422L25.207 16.7969ZM23.7891 18.0273L23.3196 17.1444L23.315 17.1469L23.7891 18.0273ZM21.457 18.7656L21.6214 19.752L21.628 19.7509L21.457 18.7656ZM17.9883 18.125C18.9965 18.125 19.8646 18.0973 20.5871 18.0398L20.4285 16.0461C19.776 16.098 18.9644 16.125 17.9883 16.125V18.125ZM20.5871 18.0398C21.3284 17.9809 21.9926 17.8596 22.5527 17.6532L21.8613 15.7765C21.5309 15.8982 21.0622 15.9957 20.4285 16.0461L20.5871 18.0398ZM22.5671 17.6478C23.153 17.4216 23.6618 17.0745 24.0359 16.5797L22.4406 15.3735C22.3304 15.5193 22.1517 15.6643 21.847 15.7819L22.5671 17.6478ZM24.0359 16.5797C24.3916 16.1092 24.6144 15.5378 24.7445 14.9155L22.7868 14.5064C22.6981 14.9309 22.5693 15.2033 22.4406 15.3735L24.0359 16.5797ZM24.7421 14.9263C24.8779 14.311 24.9482 13.593 24.9646 12.786L22.9651 12.7452C22.9503 13.4695 22.8877 14.0484 22.7891 14.4955L24.7421 14.9263ZM24.9644 12.7959C24.9882 12.0094 25 11.0769 25 10H23C23 11.0637 22.9883 11.975 22.9653 12.7353L24.9644 12.7959ZM25 10C25 8.92315 24.9882 7.99442 24.9644 7.2155L22.9653 7.27669C22.9883 8.02902 23 8.93623 23 10H25ZM24.9646 7.2259C24.9482 6.41228 24.8781 5.69248 24.7415 5.08231L22.7898 5.51925C22.8876 5.95596 22.9502 6.53303 22.965 7.26629L24.9646 7.2259ZM24.7451 5.09913C24.6157 4.47066 24.3935 3.89326 24.0359 3.42033L22.4406 4.62655C22.5674 4.79424 22.6968 5.0684 22.7862 5.50243L24.7451 5.09913ZM24.0359 3.42033C23.6587 2.92137 23.1445 2.57655 22.5527 2.35853L21.8613 4.23522C22.1602 4.34532 22.3335 4.48488 22.4406 4.62655L24.0359 3.42033ZM22.5671 2.36395C22.0015 2.14566 21.332 2.01943 20.5871 1.96018L20.4285 3.95388C21.0586 4.004 21.5219 4.10434 21.847 4.2298L22.5671 2.36395ZM20.588 1.96025C19.8725 1.90268 19.004 1.875 17.9883 1.875V3.875C18.9726 3.875 19.7838 3.90201 20.4276 3.95381L20.588 1.96025ZM17.9883 1.875H6.75V3.875H17.9883V1.875ZM5.75 2.875V17.125H7.75V2.875H5.75ZM6.75 18.125H17.9883V16.125H6.75V18.125ZM5.5 19V1H3.5V19H5.5ZM4.5 2H17.9883V0H4.5V2ZM17.9883 2C19.3286 2 20.423 2.08034 21.2847 2.23112L21.6294 0.261063C20.6161 0.0837273 19.398 0 17.9883 0V2ZM21.294 2.23271C22.1691 2.37737 22.8321 2.59311 23.315 2.85313L24.2632 1.09219C23.5273 0.695952 22.6356 0.427322 21.6201 0.25948L21.294 2.23271ZM23.3196 2.85563C23.8172 3.12015 24.154 3.42642 24.375 3.75783L26.0391 2.64842C25.6038 1.99546 24.9953 1.48141 24.2585 1.08969L23.3196 2.85563ZM24.3811 3.76687C24.6349 4.13872 24.832 4.59858 24.9571 5.16495L26.91 4.73349C26.7383 3.95611 26.4511 3.2519 26.033 2.63938L24.3811 3.76687ZM24.9602 5.17826C25.0977 5.76293 25.1815 6.4475 25.2035 7.2387L27.2027 7.18317C27.1778 6.28688 27.0819 5.46364 26.907 4.72018L24.9602 5.17826ZM25.2038 7.24829C25.2345 8.06941 25.25 8.98639 25.25 10H27.25C27.25 8.96674 27.2342 8.02434 27.2024 7.17358L25.2038 7.24829ZM25.25 10C25.25 11.0136 25.2345 11.9346 25.2038 12.7638L27.2024 12.8378C27.2342 11.9795 27.25 11.0333 27.25 10H25.25ZM25.2035 12.7728C25.1816 13.5554 25.0979 14.2412 24.9596 14.836L26.9076 15.289C27.0818 14.54 27.1778 13.718 27.2027 12.8288L25.2035 12.7728ZM24.9577 14.8444C24.833 15.4021 24.6362 15.8594 24.3811 16.2331L26.033 17.3606C26.4498 16.75 26.7373 16.051 26.9095 15.2806L24.9577 14.8444ZM24.375 16.2422C24.154 16.5736 23.8172 16.8798 23.3196 17.1444L24.2585 18.9103C24.9953 18.5186 25.6038 18.0045 26.0391 17.3516L24.375 16.2422ZM23.315 17.1469C22.8291 17.4085 22.1632 17.6281 21.286 17.7804L21.628 19.7509C22.6415 19.575 23.5303 19.3024 24.2632 18.9078L23.315 17.1469ZM21.2926 17.7792C20.4276 17.9234 19.3303 18 17.9883 18V20C19.3963 20 20.6115 19.9203 21.6214 19.752L21.2926 17.7792ZM17.9883 18H4.5V20H17.9883V18ZM30 19H29V20H30V19ZM30 1V0H29V1H30ZM48 1H49V0H48V1ZM48 2.875V3.875H49V2.875H48ZM32.25 2.875V1.875H31.25V2.875H32.25ZM32.25 8.875H31.25V9.875H32.25V8.875ZM47.25 8.875H48.25V7.875H47.25V8.875ZM47.25 10.75V11.75H48.25V10.75H47.25ZM32.25 10.75V9.75H31.25V10.75H32.25ZM32.25 17.125H31.25V18.125H32.25V17.125ZM48 17.125H49V16.125H48V17.125ZM48 19V20H49V19H48ZM31 19V1H29V19H31ZM30 2H48V0H30V2ZM47 1V2.875H49V1H47ZM48 1.875H32.25V3.875H48V1.875ZM31.25 2.875V8.875H33.25V2.875H31.25ZM32.25 9.875H47.25V7.875H32.25V9.875ZM46.25 8.875V10.75H48.25V8.875H46.25ZM47.25 9.75H32.25V11.75H47.25V9.75ZM31.25 10.75V17.125H33.25V10.75H31.25ZM32.25 18.125H48V16.125H32.25V18.125ZM47 17.125V19H49V17.125H47ZM48 18H30V20H48V18ZM69.375 1V0H68.7693L68.4888 0.536746L69.375 1ZM72 1L72.8793 1.47628L73.6789 0H72V1ZM62.25 19V20H62.8456L63.1293 19.4763L62.25 19ZM59.25 19L58.3707 19.4763L58.6544 20H59.25V19ZM49.5 1V0H47.8211L48.6207 1.47628L49.5 1ZM52.125 1L53.0112 0.536746L52.7307 0H52.125V1ZM60.75 17.5L59.8638 17.9633L60.75 19.6586L61.6362 17.9633L60.75 17.5ZM69.375 2H72V0H69.375V2ZM71.1207 0.523717L61.3707 18.5237L63.1293 19.4763L72.8793 1.47628L71.1207 0.523717ZM62.25 18H59.25V20H62.25V18ZM60.1293 18.5237L50.3793 0.523717L48.6207 1.47628L58.3707 19.4763L60.1293 18.5237ZM49.5 2H52.125V0H49.5V2ZM51.2388 1.46325L59.8638 17.9633L61.6362 17.0367L53.0112 0.536746L51.2388 1.46325ZM61.6362 17.9633L70.2612 1.46325L68.4888 0.536746L59.8638 17.0367L61.6362 17.9633ZM99 1V0H98V1H99ZM101.25 1H102.25V0H101.25V1ZM101.25 19V20H102.25V19H101.25ZM99 19H98V20H99V19ZM99 10.75H100V9.75H99V10.75ZM82.5 10.75V9.75H81.5V10.75H82.5ZM82.5 19V20H83.5V19H82.5ZM80.25 19H79.25V20H80.25V19ZM80.25 1V0H79.25V1H80.25ZM82.5 1H83.5V0H82.5V1ZM82.5 8.875H81.5V9.875H82.5V8.875ZM99 8.875V9.875H100V8.875H99ZM99 2H101.25V0H99V2ZM100.25 1V19H102.25V1H100.25ZM101.25 18H99V20H101.25V18ZM100 19V10.75H98V19H100ZM99 9.75H82.5V11.75H99V9.75ZM81.5 10.75V19H83.5V10.75H81.5ZM82.5 18H80.25V20H82.5V18ZM81.25 19V1H79.25V19H81.25ZM80.25 2H82.5V0H80.25V2ZM81.5 1V8.875H83.5V1H81.5ZM82.5 9.875H99V7.875H82.5V9.875ZM100 8.875V1H98V8.875H100ZM123.48 0.882812L123.3 1.86646L123.309 1.86808L123.48 0.882812ZM125.812 1.64453L125.321 2.51555L125.33 2.52027L125.812 1.64453ZM127.934 4.73828L126.956 4.94707L126.958 4.95753L127.934 4.73828ZM128.203 7.09375L127.203 7.12053L127.204 7.12944L128.203 7.09375ZM128.203 12.9062L127.204 12.8706L127.203 12.8795L128.203 12.9062ZM127.934 15.2617L126.958 15.0425L126.956 15.0529L127.934 15.2617ZM125.812 18.3672L126.295 19.243L126.304 19.2382L125.812 18.3672ZM123.48 19.1172L123.309 18.1319L123.3 18.1336L123.48 19.1172ZM109.758 19.1172L109.937 18.1333L109.93 18.1322L109.758 19.1172ZM107.438 18.3672L106.946 19.2382L106.955 19.2429L107.438 18.3672ZM106.02 17.0781L105.176 17.615L105.182 17.624L106.02 17.0781ZM105.293 15.2617L104.315 15.4705L104.317 15.481L105.293 15.2617ZM105.293 4.73828L104.317 4.51902L104.315 4.5295L105.293 4.73828ZM106.02 2.92188L105.182 2.37596L105.176 2.385L106.02 2.92188ZM107.438 1.64453L107.92 2.52031L107.929 2.51551L107.438 1.64453ZM109.758 0.882812L109.93 1.86786L109.937 1.86668L109.758 0.882812ZM122.52 17.418L122.6 18.4148L122.61 18.4139L122.52 17.418ZM125.965 12.9062L124.965 12.8774L124.965 12.8868L125.965 12.9062ZM125.965 7.10547L124.965 7.1247L124.965 7.13458L125.965 7.10547ZM124.219 2.94531L123.839 3.87035L123.845 3.87266L124.219 2.94531ZM122.531 2.59375L122.44 3.58962L122.452 3.5906L122.531 2.59375ZM110.707 2.59375L110.787 3.59058L110.798 3.58964L110.707 2.59375ZM107.273 7.10547L108.273 7.12488L108.273 7.1247L107.273 7.10547ZM107.273 12.9062L106.274 12.9255L106.274 12.9354L107.273 12.9062ZM107.988 16.2812L107.168 16.8534L107.173 16.8598L107.177 16.8661L107.988 16.2812ZM110.707 17.418L110.615 18.4138L110.628 18.4148L110.707 17.418ZM120.012 1.625C121.35 1.625 122.442 1.70907 123.3 1.86642L123.661 -0.100794C122.644 -0.287192 121.423 -0.375 120.012 -0.375V1.625ZM123.309 1.86808C124.181 2.01936 124.841 2.24442 125.321 2.51551L126.304 0.773553C125.566 0.357143 124.67 0.0743923 123.651 -0.102459L123.309 1.86808ZM125.33 2.52027C125.813 2.78663 126.149 3.10313 126.375 3.45875L128.062 2.385C127.632 1.70937 127.031 1.1743 126.295 0.76879L125.33 2.52027ZM126.375 3.45875C126.63 3.85893 126.828 4.34955 126.956 4.94706L128.912 4.5295C128.742 3.73639 128.464 3.01607 128.062 2.385L126.375 3.45875ZM126.958 4.95753C127.097 5.57724 127.181 6.29626 127.203 7.12053L129.203 7.06697C129.178 6.14124 129.083 5.28995 128.909 4.51903L126.958 4.95753ZM127.204 7.12944C127.235 7.99036 127.25 8.94699 127.25 10H129.25C129.25 8.92801 129.234 7.94714 129.202 7.05806L127.204 7.12944ZM127.25 10C127.25 11.053 127.235 12.0096 127.204 12.8706L129.202 12.9419C129.234 12.0529 129.25 11.072 129.25 10H127.25ZM127.203 12.8795C127.181 13.7037 127.097 14.4228 126.958 15.0425L128.909 15.481C129.083 14.7101 129.178 13.8588 129.203 12.933L127.203 12.8795ZM126.956 15.0529C126.828 15.6505 126.63 16.1411 126.375 16.5412L128.062 17.615C128.464 16.9839 128.742 16.2636 128.912 15.4705L126.956 15.0529ZM126.375 16.5412C126.147 16.8993 125.808 17.2214 125.321 17.4962L126.304 19.2382C127.035 18.8255 127.634 18.2882 128.062 17.615L126.375 16.5412ZM125.33 17.4914C124.847 17.7578 124.184 17.9802 123.309 18.1319L123.651 20.1025C124.668 19.9261 125.56 19.6484 126.295 19.2429L125.33 17.4914ZM123.3 18.1336C122.442 18.2909 121.35 18.375 120.012 18.375V20.375C121.423 20.375 122.644 20.2872 123.661 20.1008L123.3 18.1336ZM120.012 18.375H113.238V20.375H120.012V18.375ZM113.238 18.375C111.9 18.375 110.804 18.291 109.937 18.1333L109.579 20.1011C110.602 20.2872 111.827 20.375 113.238 20.375V18.375ZM109.93 18.1322C109.064 17.9806 108.405 17.7585 107.92 17.4914L106.955 19.2429C107.689 19.6478 108.576 19.9256 109.585 20.1022L109.93 18.1322ZM107.929 17.4962C107.44 17.2205 107.094 16.8958 106.857 16.5322L105.182 17.624C105.617 18.2917 106.216 18.8264 106.946 19.2382L107.929 17.4962ZM106.863 16.5412C106.606 16.1378 106.404 15.6434 106.269 15.0425L104.317 15.481C104.495 16.2706 104.776 16.9872 105.176 17.615L106.863 16.5412ZM106.271 15.0529C106.138 14.4293 106.057 13.7067 106.035 12.8795L104.036 12.933C104.06 13.8558 104.151 14.7035 104.315 15.4705L106.271 15.0529ZM106.035 12.8795C106.012 12.015 106 11.0554 106 10H104C104 11.0696 104.012 12.0475 104.036 12.933L106.035 12.8795ZM106 10C106 8.94462 106.012 7.98496 106.035 7.12053L104.036 7.06697C104.012 7.95254 104 8.93038 104 10H106ZM106.035 7.12053C106.057 6.29331 106.138 5.57066 106.271 4.94706L104.315 4.5295C104.151 5.29653 104.06 6.14419 104.036 7.06697L106.035 7.12053ZM106.269 4.95753C106.404 4.35658 106.606 3.86223 106.863 3.45875L105.176 2.385C104.776 3.01277 104.495 3.72936 104.317 4.51903L106.269 4.95753ZM106.857 3.46776C107.093 3.10664 107.436 2.78751 107.92 2.52027L106.955 0.76879C106.221 1.17343 105.618 1.70586 105.182 2.37599L106.857 3.46776ZM107.929 2.51551C108.411 2.24374 109.067 2.01888 109.93 1.86784L109.585 -0.102218C108.574 0.0748664 107.683 0.357825 106.946 0.773553L107.929 2.51551ZM109.937 1.86668C110.804 1.70903 111.9 1.625 113.238 1.625V-0.375C111.827 -0.375 110.602 -0.287153 109.579 -0.101057L109.937 1.86668ZM113.238 1.625H120.012V-0.375H113.238V1.625ZM120.012 18.5C121.02 18.5 121.884 18.4723 122.6 18.4147L122.439 16.4212C121.795 16.473 120.988 16.5 120.012 16.5V18.5ZM122.61 18.4139C123.356 18.346 124.027 18.2105 124.593 17.982L123.845 16.1273C123.52 16.2583 123.058 16.3649 122.429 16.4221L122.61 18.4139ZM124.593 17.982C125.185 17.7432 125.692 17.3783 126.061 16.8661L124.439 15.6964C124.324 15.8561 124.143 16.0068 123.845 16.1273L124.593 17.982ZM126.061 16.8661C126.412 16.379 126.631 15.786 126.758 15.1388L124.796 14.7519C124.705 15.214 124.572 15.5116 124.439 15.6964L126.061 16.8661ZM126.758 15.1388C126.883 14.5083 126.948 13.7665 126.965 12.9257L124.965 12.8868C124.95 13.6554 124.891 14.2729 124.796 14.7519L126.758 15.1388ZM126.964 12.9351C126.988 12.1101 127 11.1313 127 10H125C125 11.1187 124.988 12.0774 124.965 12.8774L126.964 12.9351ZM127 10C127 8.86878 126.988 7.8937 126.964 7.07635L124.965 7.13458C124.988 7.92662 125 8.88122 125 10H127ZM126.965 7.08624C126.948 6.23824 126.883 5.4922 126.758 4.86123L124.796 5.24815C124.891 5.72655 124.95 6.34769 124.965 7.1247L126.965 7.08624ZM126.758 4.86123C126.631 4.21398 126.412 3.62101 126.061 3.13395L124.439 4.30355C124.572 4.48836 124.705 4.78602 124.796 5.24815L126.758 4.86123ZM126.061 3.13395C125.692 2.62173 125.185 2.2568 124.593 2.01796L123.845 3.87266C124.143 3.9932 124.324 4.1439 124.439 4.30355L126.061 3.13395ZM124.599 2.02029C124.032 1.78768 123.359 1.6564 122.611 1.5969L122.452 3.5906C123.079 3.64048 123.53 3.74357 123.839 3.87033L124.599 2.02029ZM122.623 1.59795C121.902 1.53169 121.03 1.5 120.012 1.5V3.5C120.994 3.5 121.801 3.53081 122.44 3.58955L122.623 1.59795ZM120.012 1.5H113.238V3.5H120.012V1.5ZM113.238 1.5C112.22 1.5 111.344 1.53171 110.616 1.59786L110.798 3.58964C111.445 3.53079 112.256 3.5 113.238 3.5V1.5ZM110.627 1.59697C109.885 1.65666 109.215 1.78816 108.645 2.01796L109.394 3.87266C109.715 3.74309 110.17 3.64021 110.787 3.59053L110.627 1.59697ZM108.645 2.01796C108.053 2.2568 107.546 2.62173 107.177 3.13395L108.799 4.30355C108.915 4.1439 109.095 3.9932 109.394 3.87266L108.645 2.01796ZM107.177 3.13395C106.826 3.62101 106.607 4.21398 106.48 4.86123L108.442 5.24815C108.533 4.78602 108.666 4.48836 108.799 4.30355L107.177 3.13395ZM106.48 4.86123C106.355 5.4922 106.29 6.23824 106.274 7.08624L108.273 7.1247C108.288 6.34769 108.348 5.72655 108.442 5.24815L106.48 4.86123ZM106.274 7.08605C106.258 7.89918 106.25 8.87085 106.25 10H108.25C108.25 8.87915 108.258 7.92113 108.273 7.12488L106.274 7.08605ZM106.25 10C106.25 11.1292 106.258 12.1047 106.274 12.9255L108.273 12.887C108.258 12.0828 108.25 11.1208 108.25 10H106.25ZM106.274 12.9354C106.298 13.7741 106.368 14.5125 106.492 15.1388L108.454 14.7519C108.358 14.2687 108.295 13.6477 108.273 12.8771L106.274 12.9354ZM106.492 15.1388C106.618 15.781 106.83 16.3693 107.168 16.8534L108.808 15.7091C108.677 15.5214 108.546 15.219 108.454 14.7519L106.492 15.1388ZM107.177 16.8661C107.546 17.3783 108.053 17.7432 108.645 17.982L109.394 16.1273C109.095 16.0068 108.915 15.8561 108.799 15.6964L107.177 16.8661ZM108.645 17.982C109.21 18.21 109.876 18.3458 110.615 18.4138L110.799 16.4222C110.179 16.3652 109.719 16.2588 109.394 16.1273L108.645 17.982ZM110.628 18.4148C111.35 18.4723 112.222 18.5 113.238 18.5V16.5C112.254 16.5 111.439 16.473 110.786 16.4211L110.628 18.4148ZM113.238 18.5H120.012V16.5H113.238V18.5ZM148.746 9.48438L148.426 10.4318L148.434 10.4343L148.441 10.4367L148.746 9.48438ZM151.031 11.2422L150.14 11.6967L150.144 11.7041L151.031 11.2422ZM151.406 12.5078L150.413 12.6237L150.414 12.6318L150.415 12.64L151.406 12.5078ZM151.348 15.5781L150.369 15.3729L150.366 15.3851L151.348 15.5781ZM145.77 19.2461L145.654 18.2528L145.644 18.2539L145.77 19.2461ZM134.367 18.9062L134.084 19.8655L134.096 19.8687L134.367 18.9062ZM132.855 18.2383L132.29 19.0629L132.301 19.0703L132.855 18.2383ZM131.895 17.2891L131.052 17.8271L131.058 17.8376L131.065 17.8479L131.895 17.2891ZM131.402 16.0469L130.422 16.243L130.422 16.2462L131.402 16.0469ZM131.262 14.5V13.5H130.262V14.5H131.262ZM133.512 14.5H134.512V13.5H133.512V14.5ZM134.824 17.0547L134.427 17.9723L134.44 17.9778L134.824 17.0547ZM136.664 17.4297L136.592 18.4272L136.603 18.4278L136.664 17.4297ZM148.934 15.6484L149.834 16.0827L149.837 16.0765L148.934 15.6484ZM149.027 12.4492L148.079 12.7654L148.081 12.7733L148.084 12.7811L149.027 12.4492ZM148.172 11.4414L147.662 12.3017L147.669 12.3058L148.172 11.4414ZM146.379 10.9141L146.239 11.9043L146.249 11.9056L146.379 10.9141ZM136.711 10.5977L136.607 11.5923L136.608 11.5924L136.711 10.5977ZM134.25 10.1641L133.968 11.1235L133.978 11.1264L134.25 10.1641ZM132.656 9.44922L132.069 10.2587L132.08 10.2662L132.656 9.44922ZM131.742 8.46484L130.867 8.94891L130.871 8.95597L130.875 8.96297L131.742 8.46484ZM131.344 7.24609L130.353 7.38273L130.353 7.38508L131.344 7.24609ZM131.391 4.25781L130.413 4.04606L130.412 4.05386L130.41 4.0617L131.391 4.25781ZM131.941 2.99219L132.757 3.57023L132.763 3.56227L131.941 2.99219ZM134.801 1.23438L135.063 2.19941L135.07 2.19745L134.801 1.23438ZM146.203 0.753906L146.102 1.7488L146.111 1.74965L146.203 0.753906ZM148.383 1.14062L148.1 2.09986L148.111 2.10307L148.383 1.14062ZM149.895 1.79688L149.34 2.62893L149.349 2.63517L149.359 2.6412L149.895 1.79688ZM150.855 2.73438L150.013 3.27241L150.019 3.2829L150.026 3.29323L150.855 2.73438ZM151.5 5.5V6.5H152.5V5.5H151.5ZM149.25 5.5H148.25V6.5H149.25V5.5ZM147.938 2.95703L147.54 3.87468L147.553 3.88011L147.938 2.95703ZM146.086 2.58203L146.015 3.57954L146.025 3.58016L146.086 2.58203ZM137.297 2.66406L137.401 3.65864L137.409 3.65775L137.297 2.66406ZM133.91 7.63281L133.091 8.20627L133.102 8.22195L133.113 8.2372L133.91 7.63281ZM137.66 8.81641L137.595 9.81435L137.606 9.81496L137.66 8.81641ZM143.344 9.875C144.553 9.875 145.572 9.9249 146.405 10.0208L146.634 8.0339C145.702 7.92666 144.603 7.875 143.344 7.875V9.875ZM146.405 10.0208C147.244 10.1172 147.912 10.2582 148.426 10.4318L149.066 8.53693C148.377 8.30434 147.561 8.14058 146.634 8.0339L146.405 10.0208ZM148.441 10.4367C148.971 10.6067 149.33 10.8018 149.562 10.9936L150.836 9.45169C150.35 9.04976 149.74 8.7527 149.051 8.53209L148.441 10.4367ZM149.562 10.9936C149.825 11.2109 150.012 11.4456 150.14 11.6967L151.922 10.7877C151.659 10.2732 151.292 9.82817 150.836 9.45169L149.562 10.9936ZM150.144 11.7041C150.277 11.9594 150.371 12.2618 150.413 12.6237L152.4 12.3919C152.332 11.8163 152.176 11.275 151.918 10.7803L150.144 11.7041ZM150.415 12.64C150.471 13.0588 150.5 13.5219 150.5 14.0312H152.5C152.5 13.4468 152.467 12.8944 152.397 12.3756L150.415 12.64ZM150.5 14.0312C150.5 14.5163 150.455 14.9626 150.369 15.3729L152.326 15.7833C152.443 15.2249 152.5 14.64 152.5 14.0312H150.5ZM150.366 15.3851C150.296 15.7456 150.168 16.0677 149.985 16.3591L151.679 17.4221C151.996 16.9166 152.212 16.3638 152.329 15.7711L150.366 15.3851ZM149.985 16.3591C149.811 16.6364 149.564 16.9012 149.224 17.1483L150.401 18.7658C150.92 18.3879 151.353 17.9417 151.679 17.4221L149.985 16.3591ZM149.224 17.1483C148.9 17.384 148.454 17.6082 147.859 17.8041L148.485 19.7037C149.218 19.4621 149.865 19.1551 150.401 18.7658L149.224 17.1483ZM147.859 17.8041C147.277 17.9959 146.546 18.1487 145.654 18.2528L145.885 20.2394C146.868 20.1247 147.739 19.9494 148.485 19.7037L147.859 17.8041ZM145.644 18.2539C144.767 18.3645 143.721 18.4219 142.5 18.4219V20.4219C143.779 20.4219 144.912 20.3621 145.895 20.2382L145.644 18.2539ZM142.5 18.4219H139.5V20.4219H142.5V18.4219ZM139.5 18.4219C138.399 18.4219 137.449 18.3797 136.648 18.2981L136.446 20.2878C137.332 20.3781 138.351 20.4219 139.5 20.4219V18.4219ZM136.648 18.2981C135.844 18.2162 135.177 18.0957 134.639 17.9438L134.096 19.8687C134.776 20.0605 135.562 20.1979 136.446 20.2878L136.648 18.2981ZM134.65 17.9471C134.108 17.7872 133.703 17.6012 133.41 17.4062L132.301 19.0703C132.805 19.4066 133.408 19.666 134.084 19.8654L134.65 17.9471ZM133.421 17.4138C133.115 17.2033 132.888 16.9739 132.724 16.7302L131.065 17.8479C131.385 18.323 131.799 18.7263 132.29 19.0628L133.421 17.4138ZM132.737 16.751C132.574 16.4954 132.454 16.1978 132.382 15.8476L130.422 16.2462C130.539 16.8178 130.746 17.3484 131.052 17.8271L132.737 16.751ZM132.383 15.8508C132.304 15.4567 132.262 15.0079 132.262 14.5H130.262C130.262 15.1171 130.313 15.6995 130.422 16.243L132.383 15.8508ZM131.262 15.5H133.512V13.5H131.262V15.5ZM132.512 14.5C132.512 15.2797 132.621 16.0095 132.926 16.6065L134.707 15.6982C134.605 15.4983 134.512 15.1265 134.512 14.5H132.512ZM132.926 16.6065C133.249 17.2412 133.777 17.6906 134.427 17.9722L135.222 16.1371C134.934 16.0125 134.79 15.8604 134.707 15.6982L132.926 16.6065ZM134.44 17.9778C135.044 18.2297 135.775 18.3681 136.592 18.4271L136.736 16.4323C136.038 16.3819 135.542 16.2703 135.209 16.1316L134.44 17.9778ZM136.603 18.4278C137.396 18.4764 138.363 18.5 139.5 18.5V16.5C138.387 16.5 137.463 16.4768 136.725 16.4316L136.603 18.4278ZM139.5 18.5H142.5V16.5H139.5V18.5ZM142.5 18.5C143.839 18.5 144.981 18.4365 145.912 18.3023L145.627 16.3227C144.824 16.4385 143.786 16.5 142.5 16.5V18.5ZM145.912 18.3023C146.842 18.1682 147.657 17.9455 148.312 17.5983L147.375 15.8314C146.999 16.031 146.431 16.2068 145.627 16.3227L145.912 18.3023ZM148.312 17.5983C148.977 17.2457 149.513 16.7484 149.834 16.0827L148.033 15.2141C147.932 15.4235 147.742 15.6371 147.375 15.8314L148.312 17.5983ZM149.837 16.0765C150.127 15.465 150.25 14.7715 150.25 14.0312H148.25C148.25 14.5566 148.162 14.9412 148.03 15.2204L149.837 16.0765ZM150.25 14.0312C150.25 13.3285 150.169 12.68 149.971 12.1173L148.084 12.7811C148.183 13.0621 148.25 13.4684 148.25 14.0312H150.25ZM149.976 12.133C149.749 11.4526 149.288 10.934 148.675 10.5771L147.669 12.3058C147.915 12.4489 148.024 12.6021 148.079 12.7654L149.976 12.133ZM148.682 10.5811C148.095 10.2335 147.346 10.0325 146.509 9.92257L146.249 11.9056C146.958 11.9987 147.405 12.1494 147.662 12.3017L148.682 10.5811ZM146.519 9.92391C145.68 9.80529 144.616 9.75 143.344 9.75V11.75C144.571 11.75 145.531 11.8041 146.239 11.9042L146.519 9.92391ZM143.344 9.75H140.25V11.75H143.344V9.75ZM140.25 9.75C138.897 9.75 137.754 9.69993 136.814 9.60294L136.608 11.5924C137.637 11.6985 138.853 11.75 140.25 11.75V9.75ZM136.814 9.60302C135.873 9.50512 135.113 9.36866 134.522 9.20169L133.978 11.1264C134.715 11.3345 135.596 11.4871 136.607 11.5923L136.814 9.60302ZM134.532 9.2047C133.933 9.02846 133.513 8.82974 133.233 8.63225L132.08 10.2662C132.597 10.6312 133.239 10.909 133.968 11.1234L134.532 9.2047ZM133.243 8.6398C132.941 8.42024 132.739 8.19326 132.609 7.96672L130.875 8.96297C131.167 9.4708 131.575 9.90008 132.069 10.2586L133.243 8.6398ZM132.617 7.98078C132.477 7.72806 132.381 7.44005 132.334 7.10711L130.353 7.38508C130.432 7.94276 130.601 8.46725 130.867 8.94891L132.617 7.98078ZM132.334 7.10946C132.279 6.70752 132.25 6.26536 132.25 5.78125H130.25C130.25 6.34401 130.284 6.87842 130.353 7.38273L132.334 7.10946ZM132.25 5.78125C132.25 5.29102 132.292 4.84966 132.371 4.45393L130.41 4.0617C130.302 4.60346 130.25 5.17773 130.25 5.78125H132.25ZM132.368 4.46957C132.442 4.12666 132.573 3.83044 132.757 3.5702L131.125 2.41417C130.778 2.90394 130.542 3.45147 130.413 4.04606L132.368 4.46957ZM132.763 3.56227C132.942 3.30442 133.203 3.05161 133.573 2.81337L132.49 1.13194C131.938 1.48745 131.472 1.91433 131.12 2.42211L132.763 3.56227ZM133.573 2.81337C133.923 2.58785 134.41 2.37676 135.063 2.19938L134.539 0.26937C133.754 0.482612 133.062 0.763708 132.49 1.13194L133.573 2.81337ZM135.07 2.19745C135.726 2.01419 136.537 1.87007 137.514 1.77238L137.315 -0.217693C136.26 -0.112253 135.329 0.0483138 134.532 0.271304L135.07 2.19745ZM137.514 1.77238C138.487 1.67503 139.648 1.625 141 1.625V-0.375C139.602 -0.375 138.372 -0.32347 137.315 -0.217693L137.514 1.77238ZM141 1.625H143.25V-0.375H141V1.625ZM143.25 1.625C144.351 1.625 145.301 1.66715 146.102 1.74876L146.304 -0.240947C145.418 -0.33121 144.399 -0.375 143.25 -0.375V1.625ZM146.111 1.74965C146.91 1.82364 147.569 1.94336 148.1 2.09979L148.666 0.181456C147.977 -0.0214813 147.184 -0.159575 146.295 -0.241834L146.111 1.74965ZM148.111 2.10307C148.65 2.25514 149.051 2.43657 149.34 2.62893L150.449 0.964825C149.941 0.625934 149.334 0.36986 148.654 0.178175L148.111 2.10307ZM149.359 2.6412C149.654 2.82889 149.865 3.04095 150.013 3.27241L151.698 2.19634C151.377 1.69343 150.947 1.28048 150.43 0.952546L149.359 2.6412ZM150.026 3.29323C150.189 3.53481 150.31 3.82072 150.379 4.16415L152.339 3.76553C152.222 3.18709 152.006 2.65269 151.685 2.17552L150.026 3.29323ZM150.379 4.16415C150.458 4.54823 150.5 4.99187 150.5 5.5H152.5C152.5 4.88313 152.449 4.30333 152.339 3.76553L150.379 4.16415ZM151.5 4.5H149.25V6.5H151.5V4.5ZM150.25 5.5C150.25 4.72029 150.141 3.99051 149.836 3.39347L148.054 4.30184C148.156 4.50168 148.25 4.87346 148.25 5.5H150.25ZM149.836 3.39347C149.511 2.75504 148.978 2.3074 148.322 2.03395L147.553 3.88011C147.834 3.99729 147.974 4.14339 148.054 4.30184L149.836 3.39347ZM148.335 2.03948C147.72 1.7731 146.976 1.63467 146.147 1.5839L146.025 3.58016C146.727 3.62314 147.217 3.73471 147.54 3.87459L148.335 2.03948ZM146.157 1.58457C145.36 1.52761 144.389 1.5 143.25 1.5V3.5C144.361 3.5 145.281 3.52708 146.015 3.57949L146.157 1.58457ZM143.25 1.5H141V3.5H143.25V1.5ZM141 1.5C139.48 1.5 138.205 1.5552 137.185 1.67038L137.409 3.65775C138.326 3.55418 139.52 3.5 141 3.5V1.5ZM137.193 1.66951C136.173 1.77642 135.291 1.96769 134.594 2.27759L135.406 4.10522C135.834 3.91513 136.483 3.75483 137.401 3.65861L137.193 1.66951ZM134.594 2.27759C133.886 2.59223 133.291 3.06273 132.94 3.7389L134.716 4.65954C134.803 4.49196 134.989 4.29058 135.406 4.10522L134.594 2.27759ZM132.94 3.7389C132.628 4.34224 132.5 5.03917 132.5 5.78125H134.5C134.5 5.2577 134.591 4.89995 134.716 4.65954L132.94 3.7389ZM132.5 5.78125C132.5 6.21652 132.53 6.62509 132.598 7.00088L134.566 6.64755C134.524 6.41397 134.5 6.12723 134.5 5.78125H132.5ZM132.598 7.00088C132.676 7.43636 132.837 7.84365 133.091 8.20627L134.729 7.05935C134.655 6.95322 134.598 6.82145 134.566 6.64755L132.598 7.00088ZM133.113 8.2372C133.393 8.60513 133.757 8.88594 134.169 9.09685L135.081 7.31721C134.883 7.21562 134.771 7.11362 134.707 7.02843L133.113 8.2372ZM134.169 9.09685C134.584 9.30974 135.083 9.46197 135.633 9.57374L136.031 7.61376C135.581 7.52241 135.276 7.41682 135.081 7.31721L134.169 9.09685ZM135.633 9.57374C136.191 9.68709 136.848 9.76557 137.595 9.81429L137.725 7.81853C137.035 7.7735 136.473 7.70353 136.031 7.61376L135.633 9.57374ZM137.606 9.81496C138.356 9.85527 139.238 9.875 140.25 9.875V7.875C139.262 7.875 138.417 7.85567 137.714 7.81785L137.606 9.81496ZM140.25 9.875H143.344V7.875H140.25V9.875ZM174.75 1H175.75V0H174.75V1ZM174.75 2.875V3.875H175.75V2.875H174.75ZM165.75 2.875V1.875H164.75V2.875H165.75ZM165.75 19V20H166.75V19H165.75ZM163.5 19H162.5V20H163.5V19ZM163.5 2.875H164.5V1.875H163.5V2.875ZM154.5 2.875H153.5V3.875H154.5V2.875ZM154.5 1V0H153.5V1H154.5ZM173.75 1V2.875H175.75V1H173.75ZM174.75 1.875H165.75V3.875H174.75V1.875ZM164.75 2.875V19H166.75V2.875H164.75ZM165.75 18H163.5V20H165.75V18ZM164.5 19V2.875H162.5V19H164.5ZM163.5 1.875H154.5V3.875H163.5V1.875ZM155.5 2.875V1H153.5V2.875H155.5ZM154.5 2H174.75V0H154.5V2ZM178.5 19H177.5V20H178.5V19ZM178.5 1V0H177.5V1H178.5ZM196.5 1H197.5V0H196.5V1ZM196.5 2.875V3.875H197.5V2.875H196.5ZM180.75 2.875V1.875H179.75V2.875H180.75ZM180.75 8.875H179.75V9.875H180.75V8.875ZM195.75 8.875H196.75V7.875H195.75V8.875ZM195.75 10.75V11.75H196.75V10.75H195.75ZM180.75 10.75V9.75H179.75V10.75H180.75ZM180.75 17.125H179.75V18.125H180.75V17.125ZM196.5 17.125H197.5V16.125H196.5V17.125ZM196.5 19V20H197.5V19H196.5ZM179.5 19V1H177.5V19H179.5ZM178.5 2H196.5V0H178.5V2ZM195.5 1V2.875H197.5V1H195.5ZM196.5 1.875H180.75V3.875H196.5V1.875ZM179.75 2.875V8.875H181.75V2.875H179.75ZM180.75 9.875H195.75V7.875H180.75V9.875ZM194.75 8.875V10.75H196.75V8.875H194.75ZM195.75 9.75H180.75V11.75H195.75V9.75ZM179.75 10.75V17.125H181.75V10.75H179.75ZM180.75 18.125H196.5V16.125H180.75V18.125ZM195.5 17.125V19H197.5V17.125H195.5ZM196.5 18H178.5V20H196.5V18ZM199.5 19H198.5V20H199.5V19ZM199.5 1V0H198.5V1H199.5ZM201.75 1H202.75V0H201.75V1ZM201.75 17.125H200.75V18.125H201.75V17.125ZM216 17.125H217V16.125H216V17.125ZM216 19V20H217V19H216ZM200.5 19V1H198.5V19H200.5ZM199.5 2H201.75V0H199.5V2ZM200.75 1V17.125H202.75V1H200.75ZM201.75 18.125H216V16.125H201.75V18.125ZM215 17.125V19H217V17.125H215ZM216 18H199.5V20H216V18ZM235.746 9.48438L235.426 10.4318L235.434 10.4343L235.441 10.4367L235.746 9.48438ZM238.031 11.2422L237.14 11.6967L237.144 11.7041L238.031 11.2422ZM238.406 12.5078L237.413 12.6237L237.414 12.6318L237.415 12.64L238.406 12.5078ZM238.348 15.5781L237.369 15.3729L237.366 15.3851L238.348 15.5781ZM232.77 19.2461L232.654 18.2528L232.644 18.2539L232.77 19.2461ZM221.367 18.9062L221.084 19.8655L221.096 19.8687L221.367 18.9062ZM219.855 18.2383L219.29 19.0629L219.301 19.0703L219.855 18.2383ZM218.895 17.2891L218.052 17.8271L218.058 17.8376L218.065 17.8479L218.895 17.2891ZM218.402 16.0469L217.422 16.243L217.422 16.2462L218.402 16.0469ZM218.262 14.5V13.5H217.262V14.5H218.262ZM220.512 14.5H221.512V13.5H220.512V14.5ZM221.824 17.0547L221.427 17.9723L221.44 17.9778L221.824 17.0547ZM223.664 17.4297L223.592 18.4272L223.603 18.4278L223.664 17.4297ZM235.934 15.6484L236.834 16.0827L236.837 16.0765L235.934 15.6484ZM236.027 12.4492L235.079 12.7654L235.081 12.7733L235.084 12.7811L236.027 12.4492ZM235.172 11.4414L234.662 12.3017L234.669 12.3058L235.172 11.4414ZM233.379 10.9141L233.239 11.9043L233.249 11.9056L233.379 10.9141ZM223.711 10.5977L223.607 11.5923L223.608 11.5924L223.711 10.5977ZM221.25 10.1641L220.968 11.1235L220.978 11.1264L221.25 10.1641ZM219.656 9.44922L219.069 10.2587L219.08 10.2662L219.656 9.44922ZM218.742 8.46484L217.867 8.94891L217.871 8.95597L217.875 8.96297L218.742 8.46484ZM218.344 7.24609L217.353 7.38273L217.353 7.38508L218.344 7.24609ZM218.391 4.25781L217.413 4.04606L217.412 4.05386L217.41 4.0617L218.391 4.25781ZM218.941 2.99219L219.757 3.57023L219.763 3.56227L218.941 2.99219ZM221.801 1.23438L222.063 2.19941L222.07 2.19745L221.801 1.23438ZM233.203 0.753906L233.102 1.7488L233.111 1.74965L233.203 0.753906ZM235.383 1.14062L235.1 2.09986L235.111 2.10307L235.383 1.14062ZM236.895 1.79688L236.34 2.62893L236.349 2.63517L236.359 2.6412L236.895 1.79688ZM237.855 2.73438L237.013 3.27241L237.019 3.2829L237.026 3.29323L237.855 2.73438ZM238.5 5.5V6.5H239.5V5.5H238.5ZM236.25 5.5H235.25V6.5H236.25V5.5ZM234.938 2.95703L234.54 3.87468L234.553 3.88011L234.938 2.95703ZM233.086 2.58203L233.015 3.57954L233.025 3.58016L233.086 2.58203ZM224.297 2.66406L224.401 3.65864L224.409 3.65775L224.297 2.66406ZM220.91 7.63281L220.091 8.20627L220.102 8.22195L220.113 8.2372L220.91 7.63281ZM224.66 8.81641L224.595 9.81435L224.606 9.81496L224.66 8.81641ZM230.344 9.875C231.553 9.875 232.572 9.9249 233.405 10.0208L233.634 8.0339C232.702 7.92666 231.603 7.875 230.344 7.875V9.875ZM233.405 10.0208C234.244 10.1172 234.912 10.2582 235.426 10.4318L236.066 8.53693C235.377 8.30434 234.561 8.14058 233.634 8.0339L233.405 10.0208ZM235.441 10.4367C235.971 10.6067 236.33 10.8018 236.562 10.9936L237.836 9.45169C237.35 9.04976 236.74 8.7527 236.051 8.53209L235.441 10.4367ZM236.562 10.9936C236.825 11.2109 237.012 11.4456 237.14 11.6967L238.922 10.7877C238.659 10.2732 238.292 9.82817 237.836 9.45169L236.562 10.9936ZM237.144 11.7041C237.277 11.9594 237.371 12.2618 237.413 12.6237L239.4 12.3919C239.332 11.8163 239.176 11.275 238.918 10.7803L237.144 11.7041ZM237.415 12.64C237.471 13.0588 237.5 13.5219 237.5 14.0312H239.5C239.5 13.4468 239.467 12.8944 239.397 12.3756L237.415 12.64ZM237.5 14.0312C237.5 14.5163 237.455 14.9626 237.369 15.3729L239.326 15.7833C239.443 15.2249 239.5 14.64 239.5 14.0312H237.5ZM237.366 15.3851C237.296 15.7456 237.168 16.0677 236.985 16.3591L238.679 17.4221C238.996 16.9166 239.212 16.3638 239.329 15.7711L237.366 15.3851ZM236.985 16.3591C236.811 16.6364 236.564 16.9012 236.224 17.1483L237.401 18.7658C237.92 18.3879 238.353 17.9417 238.679 17.4221L236.985 16.3591ZM236.224 17.1483C235.9 17.384 235.454 17.6082 234.859 17.8041L235.485 19.7037C236.218 19.4621 236.865 19.1551 237.401 18.7658L236.224 17.1483ZM234.859 17.8041C234.277 17.9959 233.546 18.1487 232.654 18.2528L232.885 20.2394C233.868 20.1247 234.739 19.9494 235.485 19.7037L234.859 17.8041ZM232.644 18.2539C231.767 18.3645 230.721 18.4219 229.5 18.4219V20.4219C230.779 20.4219 231.912 20.3621 232.895 20.2382L232.644 18.2539ZM229.5 18.4219H226.5V20.4219H229.5V18.4219ZM226.5 18.4219C225.399 18.4219 224.449 18.3797 223.648 18.2981L223.446 20.2878C224.332 20.3781 225.351 20.4219 226.5 20.4219V18.4219ZM223.648 18.2981C222.844 18.2162 222.177 18.0957 221.639 17.9438L221.096 19.8687C221.776 20.0605 222.562 20.1979 223.446 20.2878L223.648 18.2981ZM221.65 17.9471C221.108 17.7872 220.703 17.6012 220.41 17.4062L219.301 19.0703C219.805 19.4066 220.408 19.666 221.084 19.8654L221.65 17.9471ZM220.421 17.4138C220.115 17.2033 219.888 16.9739 219.724 16.7302L218.065 17.8479C218.385 18.323 218.799 18.7263 219.29 19.0628L220.421 17.4138ZM219.737 16.751C219.574 16.4954 219.454 16.1978 219.382 15.8476L217.422 16.2462C217.539 16.8178 217.746 17.3484 218.052 17.8271L219.737 16.751ZM219.383 15.8508C219.304 15.4567 219.262 15.0079 219.262 14.5H217.262C217.262 15.1171 217.313 15.6995 217.422 16.243L219.383 15.8508ZM218.262 15.5H220.512V13.5H218.262V15.5ZM219.512 14.5C219.512 15.2797 219.621 16.0095 219.926 16.6065L221.707 15.6982C221.605 15.4983 221.512 15.1265 221.512 14.5H219.512ZM219.926 16.6065C220.249 17.2412 220.777 17.6906 221.427 17.9722L222.222 16.1371C221.934 16.0125 221.79 15.8604 221.707 15.6982L219.926 16.6065ZM221.44 17.9778C222.044 18.2297 222.775 18.3681 223.592 18.4271L223.736 16.4323C223.038 16.3819 222.542 16.2703 222.209 16.1316L221.44 17.9778ZM223.603 18.4278C224.396 18.4764 225.363 18.5 226.5 18.5V16.5C225.387 16.5 224.463 16.4768 223.725 16.4316L223.603 18.4278ZM226.5 18.5H229.5V16.5H226.5V18.5ZM229.5 18.5C230.839 18.5 231.981 18.4365 232.912 18.3023L232.627 16.3227C231.824 16.4385 230.786 16.5 229.5 16.5V18.5ZM232.912 18.3023C233.842 18.1682 234.657 17.9455 235.312 17.5983L234.375 15.8314C233.999 16.031 233.431 16.2068 232.627 16.3227L232.912 18.3023ZM235.312 17.5983C235.977 17.2457 236.513 16.7484 236.834 16.0827L235.033 15.2141C234.932 15.4235 234.742 15.6371 234.375 15.8314L235.312 17.5983ZM236.837 16.0765C237.127 15.465 237.25 14.7715 237.25 14.0312H235.25C235.25 14.5566 235.162 14.9412 235.03 15.2204L236.837 16.0765ZM237.25 14.0312C237.25 13.3285 237.169 12.68 236.971 12.1173L235.084 12.7811C235.183 13.0621 235.25 13.4684 235.25 14.0312H237.25ZM236.976 12.133C236.749 11.4526 236.288 10.934 235.675 10.5771L234.669 12.3058C234.915 12.4489 235.024 12.6021 235.079 12.7654L236.976 12.133ZM235.682 10.5811C235.095 10.2335 234.346 10.0325 233.509 9.92257L233.249 11.9056C233.958 11.9987 234.405 12.1494 234.662 12.3017L235.682 10.5811ZM233.519 9.92391C232.68 9.80529 231.616 9.75 230.344 9.75V11.75C231.571 11.75 232.531 11.8041 233.239 11.9042L233.519 9.92391ZM230.344 9.75H227.25V11.75H230.344V9.75ZM227.25 9.75C225.897 9.75 224.754 9.69993 223.814 9.60294L223.608 11.5924C224.637 11.6985 225.853 11.75 227.25 11.75V9.75ZM223.814 9.60302C222.873 9.50512 222.113 9.36866 221.522 9.20169L220.978 11.1264C221.715 11.3345 222.596 11.4871 223.607 11.5923L223.814 9.60302ZM221.532 9.2047C220.933 9.02846 220.513 8.82974 220.233 8.63225L219.08 10.2662C219.597 10.6312 220.239 10.909 220.968 11.1234L221.532 9.2047ZM220.243 8.6398C219.941 8.42024 219.739 8.19326 219.609 7.96672L217.875 8.96297C218.167 9.4708 218.575 9.90008 219.069 10.2586L220.243 8.6398ZM219.617 7.98078C219.477 7.72806 219.381 7.44005 219.334 7.10711L217.353 7.38508C217.432 7.94276 217.601 8.46725 217.867 8.94891L219.617 7.98078ZM219.334 7.10946C219.279 6.70752 219.25 6.26536 219.25 5.78125H217.25C217.25 6.34401 217.284 6.87842 217.353 7.38273L219.334 7.10946ZM219.25 5.78125C219.25 5.29102 219.292 4.84966 219.371 4.45393L217.41 4.0617C217.302 4.60346 217.25 5.17773 217.25 5.78125H219.25ZM219.368 4.46957C219.442 4.12666 219.573 3.83044 219.757 3.5702L218.125 2.41417C217.778 2.90394 217.542 3.45147 217.413 4.04606L219.368 4.46957ZM219.763 3.56227C219.942 3.30442 220.203 3.05161 220.573 2.81337L219.49 1.13194C218.938 1.48745 218.472 1.91433 218.12 2.42211L219.763 3.56227ZM220.573 2.81337C220.923 2.58785 221.41 2.37676 222.063 2.19938L221.539 0.26937C220.754 0.482612 220.062 0.763708 219.49 1.13194L220.573 2.81337ZM222.07 2.19745C222.726 2.01419 223.537 1.87007 224.514 1.77238L224.315 -0.217693C223.26 -0.112253 222.329 0.0483138 221.532 0.271304L222.07 2.19745ZM224.514 1.77238C225.487 1.67503 226.648 1.625 228 1.625V-0.375C226.602 -0.375 225.372 -0.32347 224.315 -0.217693L224.514 1.77238ZM228 1.625H230.25V-0.375H228V1.625ZM230.25 1.625C231.351 1.625 232.301 1.66715 233.102 1.74876L233.304 -0.240947C232.418 -0.33121 231.399 -0.375 230.25 -0.375V1.625ZM233.111 1.74965C233.91 1.82364 234.569 1.94336 235.1 2.09979L235.666 0.181456C234.977 -0.0214813 234.184 -0.159575 233.295 -0.241834L233.111 1.74965ZM235.111 2.10307C235.65 2.25514 236.051 2.43657 236.34 2.62893L237.449 0.964825C236.941 0.625934 236.334 0.36986 235.654 0.178175L235.111 2.10307ZM236.359 2.6412C236.654 2.82889 236.865 3.04095 237.013 3.27241L238.698 2.19634C238.377 1.69343 237.947 1.28048 237.43 0.952546L236.359 2.6412ZM237.026 3.29323C237.189 3.53481 237.31 3.82072 237.379 4.16415L239.339 3.76553C239.222 3.18709 239.006 2.65269 238.685 2.17552L237.026 3.29323ZM237.379 4.16415C237.458 4.54823 237.5 4.99187 237.5 5.5H239.5C239.5 4.88313 239.449 4.30333 239.339 3.76553L237.379 4.16415ZM238.5 4.5H236.25V6.5H238.5V4.5ZM237.25 5.5C237.25 4.72029 237.141 3.99051 236.836 3.39347L235.054 4.30184C235.156 4.50168 235.25 4.87346 235.25 5.5H237.25ZM236.836 3.39347C236.511 2.75504 235.978 2.3074 235.322 2.03395L234.553 3.88011C234.834 3.99729 234.974 4.14339 235.054 4.30184L236.836 3.39347ZM235.335 2.03948C234.72 1.7731 233.976 1.63467 233.147 1.5839L233.025 3.58016C233.727 3.62314 234.217 3.73471 234.54 3.87459L235.335 2.03948ZM233.157 1.58457C232.36 1.52761 231.389 1.5 230.25 1.5V3.5C231.361 3.5 232.281 3.52708 233.015 3.57949L233.157 1.58457ZM230.25 1.5H228V3.5H230.25V1.5ZM228 1.5C226.48 1.5 225.205 1.5552 224.185 1.67038L224.409 3.65775C225.326 3.55418 226.52 3.5 228 3.5V1.5ZM224.193 1.66951C223.173 1.77642 222.291 1.96769 221.594 2.27759L222.406 4.10522C222.834 3.91513 223.483 3.75483 224.401 3.65861L224.193 1.66951ZM221.594 2.27759C220.886 2.59223 220.291 3.06273 219.94 3.7389L221.716 4.65954C221.803 4.49196 221.989 4.29058 222.406 4.10522L221.594 2.27759ZM219.94 3.7389C219.628 4.34224 219.5 5.03917 219.5 5.78125H221.5C221.5 5.2577 221.591 4.89995 221.716 4.65954L219.94 3.7389ZM219.5 5.78125C219.5 6.21652 219.53 6.62509 219.598 7.00088L221.566 6.64755C221.524 6.41397 221.5 6.12723 221.5 5.78125H219.5ZM219.598 7.00088C219.676 7.43636 219.837 7.84365 220.091 8.20627L221.729 7.05935C221.655 6.95322 221.598 6.82145 221.566 6.64755L219.598 7.00088ZM220.113 8.2372C220.393 8.60513 220.757 8.88594 221.169 9.09685L222.081 7.31721C221.883 7.21562 221.771 7.11362 221.707 7.02843L220.113 8.2372ZM221.169 9.09685C221.584 9.30974 222.083 9.46197 222.633 9.57374L223.031 7.61376C222.581 7.52241 222.276 7.41682 222.081 7.31721L221.169 9.09685ZM222.633 9.57374C223.191 9.68709 223.848 9.76557 224.595 9.81429L224.725 7.81853C224.035 7.7735 223.473 7.70353 223.031 7.61376L222.633 9.57374ZM224.606 9.81496C225.356 9.85527 226.238 9.875 227.25 9.875V7.875C226.262 7.875 225.417 7.85567 224.714 7.81785L224.606 9.81496ZM227.25 9.875H230.344V7.875H227.25V9.875Z" fill="#00308F"/>
</g>
<defs>
<filter id="filter0_d_1_2" x="0.5" y="0.625" width="242" height="26.7969" filterUnits="userSpaceOnUse" color-interpolation-filters="sRGB">
<feFlood flood-opacity="0" result="BackgroundImageFix"/>
<feColorMatrix in="SourceAlpha" type="matrix" values="0 0 0 0 0 0 0 0 0 0 0 0 0 0 0 0 0 0 127 0" result="hardAlpha"/>
<feOffset dy="4"/>
<feGaussianBlur stdDeviation="2"/>
<feComposite in2="hardAlpha" operator="out"/>
<feColorMatrix type="matrix" values="0 0 0 0 0 0 0 0 0 0 0 0 0 0 0 0 0 0 0.25 0"/>
<feBlend mode="normal" in2="BackgroundImageFix" result="effect1_dropShadow_1_2"/>
<feBlend mode="normal" in="SourceGraphic" in2="effect1_dropShadow_1_2" result="shape"/>
</filter>
</defs>
</svg>

